<svg width="147" height="20" viewBox="0 0 147 20" xmlns="http://www.w3.org/2000/svg">
<path d="M7.93059 16.1111C6.43794 16.1111 5.08479 15.7835 3.87113 15.1282C2.67143 14.4587 1.72283 13.5399 1.02533 12.3718C0.341776 11.1895 0 9.85755 0 8.37607C0 6.89459 0.341776 5.5698 1.02533 4.40171C1.72283 3.21937 2.67143 2.30057 3.87113 1.6453C5.08479 0.975784 6.44491 0.641026 7.95152 0.641026C9.22097 0.641026 10.3649 0.868946 11.3832 1.32479C12.4155 1.78063 13.2804 2.4359 13.9779 3.2906L11.8017 5.34188C10.8113 4.17379 9.58367 3.58974 8.11892 3.58974C7.21217 3.58974 6.40306 3.7963 5.69161 4.2094C4.98016 4.60826 4.42216 5.17094 4.01761 5.89744C3.62701 6.62393 3.43171 7.45014 3.43171 8.37607C3.43171 9.30199 3.62701 10.1282 4.01761 10.8547C4.42216 11.5812 4.98016 12.151 5.69161 12.5641C6.40306 12.963 7.21217 13.1624 8.11892 13.1624C9.58367 13.1624 10.8113 12.5712 11.8017 11.3889L13.9779 13.4402C13.2804 14.3091 12.4155 14.9715 11.3832 15.4274C10.3509 15.8832 9.20004 16.1111 7.93059 16.1111Z" />
<path d="M25.0878 7.09402H21.2795V15.8547H18.0361V7.09402H14.2277V4.35897H25.0878V7.09402Z" />
<path d="M33.4611 4.18804C34.5074 4.18804 35.456 4.43732 36.3069 4.9359C37.1718 5.42023 37.8484 6.11111 38.3366 7.00855C38.8249 7.89174 39.069 8.9245 39.069 10.1068C39.069 11.2892 38.8249 12.3291 38.3366 13.2265C37.8484 14.1097 37.1718 14.8006 36.3069 15.2991C35.456 15.7835 34.5074 16.0256 33.4611 16.0256C32.0243 16.0256 30.8943 15.5627 30.0713 14.6368V20H26.8069V4.35897H29.9248V5.68376C30.7339 4.68661 31.9127 4.18804 33.4611 4.18804ZM32.8961 13.2906C33.7331 13.2906 34.4167 13.0057 34.9468 12.4359C35.4908 11.8519 35.7629 11.0755 35.7629 10.1068C35.7629 9.13818 35.4908 8.36895 34.9468 7.79915C34.4167 7.2151 33.7331 6.92308 32.8961 6.92308C32.0591 6.92308 31.3686 7.2151 30.8246 7.79915C30.2944 8.36895 30.0294 9.13818 30.0294 10.1068C30.0294 11.0755 30.2944 11.8519 30.8246 12.4359C31.3686 13.0057 32.0591 13.2906 32.8961 13.2906Z" />
<path d="M45.5463 4.18804C47.2901 4.18804 48.6293 4.61538 49.5639 5.47009C50.4986 6.31054 50.9659 7.58547 50.9659 9.29487V15.8547H47.9108V14.4231C47.297 15.4915 46.1531 16.0256 44.4791 16.0256C43.6142 16.0256 42.8609 15.8761 42.2192 15.5769C41.5915 15.2778 41.1102 14.8647 40.7754 14.3376C40.4406 13.8105 40.2732 13.2123 40.2732 12.5427C40.2732 11.4744 40.6638 10.6339 41.445 10.0214C42.2401 9.40883 43.4608 9.10256 45.1069 9.10256H47.7016C47.7016 8.37607 47.4854 7.82051 47.0529 7.4359C46.6204 7.03704 45.9718 6.83761 45.1069 6.83761C44.507 6.83761 43.9141 6.93732 43.3282 7.13675C42.7563 7.32194 42.268 7.57835 41.8635 7.90598L40.6917 5.57692C41.3055 5.13533 42.0379 4.79345 42.8888 4.55128C43.7537 4.30912 44.6395 4.18804 45.5463 4.18804ZM45.2952 13.7821C45.8532 13.7821 46.3484 13.6538 46.7809 13.3974C47.2133 13.1268 47.5202 12.735 47.7016 12.2222V11.047H45.4626C44.1234 11.047 43.4538 11.4957 43.4538 12.3932C43.4538 12.8205 43.6142 13.1624 43.9351 13.4188C44.2699 13.661 44.7232 13.7821 45.2952 13.7821Z" />
<path d="M63.2597 7.09402H59.4513V15.8547H56.2079V7.09402H52.3996V4.35897H63.2597V7.09402Z" />
<path d="M69.8028 16.0256C68.6171 16.0256 67.5499 15.7764 66.6013 15.2778C65.6666 14.765 64.9343 14.0598 64.4042 13.1624C63.8741 12.265 63.609 11.2464 63.609 10.1068C63.609 8.96724 63.8741 7.94872 64.4042 7.05128C64.9343 6.15385 65.6666 5.45584 66.6013 4.95726C67.5499 4.44444 68.6171 4.18804 69.8028 4.18804C70.9886 4.18804 72.0488 4.44444 72.9834 4.95726C73.9181 5.45584 74.6505 6.15385 75.1806 7.05128C75.7107 7.94872 75.9757 8.96724 75.9757 10.1068C75.9757 11.2464 75.7107 12.265 75.1806 13.1624C74.6505 14.0598 73.9181 14.765 72.9834 15.2778C72.0488 15.7764 70.9886 16.0256 69.8028 16.0256ZM69.8028 13.2906C70.6398 13.2906 71.3234 13.0057 71.8535 12.4359C72.3975 11.8519 72.6696 11.0755 72.6696 10.1068C72.6696 9.13818 72.3975 8.36895 71.8535 7.79915C71.3234 7.2151 70.6398 6.92308 69.8028 6.92308C68.9658 6.92308 68.2753 7.2151 67.7313 7.79915C67.1872 8.36895 66.9152 9.13818 66.9152 10.1068C66.9152 11.0755 67.1872 11.8519 67.7313 12.4359C68.2753 13.0057 68.9658 13.2906 69.8028 13.2906Z" />
<path d="M83.5777 16.0256C82.378 16.0256 81.2969 15.7764 80.3344 15.2778C79.3857 14.765 78.6394 14.0598 78.0954 13.1624C77.5653 12.265 77.3002 11.2464 77.3002 10.1068C77.3002 8.96724 77.5653 7.94872 78.0954 7.05128C78.6394 6.15385 79.3857 5.45584 80.3344 4.95726C81.2969 4.44444 82.378 4.18804 83.5777 4.18804C84.7635 4.18804 85.7958 4.44444 86.6746 4.95726C87.5674 5.45584 88.2161 6.17521 88.6207 7.11539L86.0887 8.50427C85.5028 7.45014 84.6589 6.92308 83.5568 6.92308C82.7059 6.92308 82.0014 7.20798 81.4434 7.77778C80.8854 8.34758 80.6064 9.12393 80.6064 10.1068C80.6064 11.0897 80.8854 11.8661 81.4434 12.4359C82.0014 13.0057 82.7059 13.2906 83.5568 13.2906C84.6728 13.2906 85.5168 12.7635 86.0887 11.7094L88.6207 13.1197C88.2161 14.0313 87.5674 14.7436 86.6746 15.2564C85.7958 15.7692 84.7635 16.0256 83.5777 16.0256Z" />
<path d="M106.009 10.0641C106.009 11.8447 105.423 13.255 104.251 14.2949C103.093 15.3205 101.433 15.9117 99.2707 16.0684V20H96.2784V16.0684C94.1162 15.9117 92.4491 15.3276 91.2773 14.3162C90.1195 13.2906 89.5406 11.8732 89.5406 10.0641C89.5406 8.28348 90.1125 6.90171 91.2564 5.9188C92.4143 4.9359 94.0883 4.3661 96.2784 4.2094V0H99.2707V4.2094C101.433 4.3661 103.093 4.94302 104.251 5.94017C105.423 6.93732 106.009 8.31197 106.009 10.0641ZM92.7002 10.0641C92.7002 11.0897 92.9862 11.8803 93.5582 12.4359C94.1301 12.9915 95.0369 13.3405 96.2784 13.4829V6.79487C95.0369 6.92308 94.1301 7.25784 93.5582 7.79915C92.9862 8.32621 92.7002 9.0812 92.7002 10.0641ZM99.2707 13.4829C100.512 13.3405 101.419 12.9915 101.991 12.4359C102.577 11.8803 102.87 11.0897 102.87 10.0641C102.87 9.0812 102.577 8.32621 101.991 7.79915C101.419 7.25784 100.512 6.92308 99.2707 6.79487V13.4829Z" />
<path d="M119.163 10.1496C119.163 10.1923 119.142 10.4915 119.1 11.047H110.583C110.737 11.7593 111.1 12.3219 111.672 12.735C112.244 13.1481 112.955 13.3547 113.806 13.3547C114.392 13.3547 114.908 13.2692 115.354 13.0983C115.815 12.9131 116.24 12.6282 116.631 12.2436L118.368 14.1667C117.307 15.406 115.759 16.0256 113.722 16.0256C112.453 16.0256 111.33 15.7764 110.353 15.2778C109.377 14.765 108.623 14.0598 108.093 13.1624C107.563 12.265 107.298 11.2464 107.298 10.1068C107.298 8.98148 107.556 7.97009 108.072 7.07265C108.603 6.16097 109.321 5.45584 110.228 4.95726C111.148 4.44444 112.174 4.18804 113.304 4.18804C114.406 4.18804 115.403 4.4302 116.296 4.91453C117.189 5.39886 117.886 6.09687 118.389 7.00855C118.905 7.90598 119.163 8.95299 119.163 10.1496ZM113.325 6.7094C112.585 6.7094 111.965 6.92308 111.462 7.35043C110.96 7.77778 110.653 8.36182 110.542 9.10256H116.087C115.975 8.37607 115.668 7.79915 115.166 7.3718C114.664 6.9302 114.05 6.7094 113.325 6.7094Z" />
<path d="M128.298 4.18804C129.344 4.18804 130.293 4.43732 131.144 4.9359C132.009 5.42023 132.685 6.11111 133.174 7.00855C133.662 7.89174 133.906 8.9245 133.906 10.1068C133.906 11.2892 133.662 12.3291 133.174 13.2265C132.685 14.1097 132.009 14.8006 131.144 15.2991C130.293 15.7835 129.344 16.0256 128.298 16.0256C126.861 16.0256 125.731 15.5627 124.908 14.6368V20H121.644V4.35897H124.762V5.68376C125.571 4.68661 126.75 4.18804 128.298 4.18804ZM127.733 13.2906C128.57 13.2906 129.254 13.0057 129.784 12.4359C130.328 11.8519 130.6 11.0755 130.6 10.1068C130.6 9.13818 130.328 8.36895 129.784 7.79915C129.254 7.2151 128.57 6.92308 127.733 6.92308C126.896 6.92308 126.206 7.2151 125.662 7.79915C125.131 8.36895 124.866 9.13818 124.866 10.1068C124.866 11.0755 125.131 11.8519 125.662 12.4359C126.206 13.0057 126.896 13.2906 127.733 13.2906Z" />
<path d="M147 10.3442C147 10.3869 146.979 10.6861 146.937 11.2416H138.421C138.574 11.9539 138.937 12.5165 139.509 12.9296C140.081 13.3428 140.792 13.5493 141.643 13.5493C142.229 13.5493 142.745 13.4638 143.192 13.2929C143.652 13.1077 144.077 12.8228 144.468 12.4382L146.205 14.3613C145.145 15.6006 143.596 16.2202 141.559 16.2202C140.29 16.2202 139.167 15.971 138.191 15.4724C137.214 14.9596 136.461 14.2544 135.931 13.357C135.401 12.4596 135.135 11.441 135.135 10.3014C135.135 9.17609 135.394 8.16469 135.91 7.26725C136.44 6.35557 137.158 5.65044 138.065 5.15187C138.986 4.63905 140.011 4.38264 141.141 4.38264C142.243 4.38264 143.24 4.6248 144.133 5.10913C145.026 5.59346 145.724 6.29147 146.226 7.20315C146.742 8.10059 147 9.1476 147 10.3442ZM141.162 6.90401C140.423 6.90401 139.802 7.11768 139.3 7.54503C138.797 7.97238 138.49 8.55643 138.379 9.29717H143.924C143.812 8.57067 143.506 7.99375 143.003 7.5664C142.501 7.1248 141.887 6.90401 141.162 6.90401Z" />
</svg>
