<svg width="25" height="30" viewBox="0 0 25 30" xmlns="http://www.w3.org/2000/svg">
<path d="M18.7706 8.80886V6.31579C18.7706 2.82549 15.9653 0 12.5 0C9.03465 0 6.22937 2.82549 6.22937 6.31579V8.80886H0L0.123762 9.76454C0.948845 16.3296 2.55776 28.8781 2.59901 29.2521V30H22.3185L25 8.80886H18.7706ZM7.87954 6.31579C7.87954 3.73961 9.94224 1.66205 12.5 1.66205C15.0578 1.66205 17.1205 3.73961 17.1205 6.31579V8.80886H7.87954V6.31579ZM20.8333 28.3379H4.16667C3.79538 25.4294 2.47525 15.0831 1.89769 10.4709H6.22937V15.9972H7.87954V10.4709H17.1205V15.9972H18.7706V10.4709H23.1023L20.8333 28.3379Z" />
</svg>
